<svg width="40" height="40" viewBox="0 0 40 40" fill="none" xmlns="http://www.w3.org/2000/svg">
<path d="M15.2695 3.10784L15.799 4.40654C17.1526 4.046 18.5474 3.86353 19.9482 3.86375C20.7643 3.86317 21.5792 3.92551 22.3857 4.05023L22.5722 2.65829C21.7034 2.52973 20.8264 2.46517 19.9482 2.46515C18.3667 2.4667 16.7928 2.6829 15.2695 3.10784Z" fill="#FFE2C7"/>
<path d="M5.60252 27.4867C4.51509 25.4015 3.89896 23.1029 3.79766 20.7534H2.38574C2.48997 23.3499 3.17258 25.8903 4.38374 28.1893L5.60252 27.4867Z" fill="#FFE2C7"/>
<path d="M5.73584 9.73457L6.85472 10.5771C8.04566 8.93106 9.5343 7.52262 11.2437 6.42456L10.5444 5.20911C8.67148 6.40216 7.04018 7.93743 5.73584 9.73457Z" fill="#FFE2C7"/>
<path d="M3.07178 15.1524L4.45373 15.4222C4.83756 14.1387 5.3801 12.9082 6.06877 11.7592L4.94323 10.91C4.13555 12.2357 3.50631 13.6622 3.07178 15.1524Z" fill="#FFE2C7"/>
<path d="M2.38574 19.3316H3.78767C3.82435 18.4822 3.92789 17.6371 4.09736 16.8041L2.71874 16.5344C2.53315 17.4564 2.42179 18.3918 2.38574 19.3316Z" fill="#FFE2C7"/>
<path d="M13.9108 3.54407C13.1773 3.81235 12.463 4.13055 11.7729 4.49645L12.4722 5.71189C13.1077 5.37769 13.7652 5.0873 14.4403 4.84277L13.9108 3.54407Z" fill="#FFE2C7"/>
<path d="M37.5175 20.0575C37.5182 18.5307 37.3189 17.0104 36.9248 15.5353L35.5928 15.9716C35.9402 17.3058 36.1158 18.6788 36.1156 20.0575C36.1156 20.2273 36.1156 20.3905 36.1156 20.5636L37.5109 20.7468C37.5109 20.5004 37.5175 20.2739 37.5175 20.0575Z" fill="#FFE2C7"/>
<path d="M32.7822 10.224C33.8 11.5488 34.6055 13.0239 35.1698 14.5963L36.5018 14.1634C35.8811 12.4257 34.9911 10.7963 33.8645 9.3349L32.7822 10.224Z" fill="#FFE2C7"/>
<path d="M28.5427 4.73953C27.1098 3.93337 25.5708 3.33254 23.9707 2.95465L23.7842 4.35325C25.2014 4.69928 26.5649 5.23703 27.8368 5.95165L28.5427 4.73953Z" fill="#FFE2C7"/>
<path d="M37.3909 22.1487L35.9989 21.9656C35.8339 23.3673 35.4846 24.7412 34.96 26.0515L36.2287 26.6542C36.8152 25.2109 37.2061 23.6957 37.3909 22.1487Z" fill="#FFE2C7"/>
<path d="M35.6394 27.9396L34.374 27.3369C33.1719 29.6963 31.4142 31.7283 29.2524 33.2576L29.9551 34.473C32.3614 32.7993 34.3146 30.5543 35.6394 27.9396Z" fill="#FFE2C7"/>
<path d="M16.1653 37.197L16.4351 35.8217C15.8124 35.6832 15.1985 35.5075 14.5969 35.2955L14.0874 36.6042C14.767 36.8449 15.461 37.0429 16.1653 37.197Z" fill="#FFE2C7"/>
<path d="M13.2783 34.7661C11.7359 34.0647 10.3133 33.1253 9.06248 31.9822L8.06348 32.9812C9.4529 34.2589 11.0381 35.3055 12.7588 36.0815L13.2783 34.7661Z" fill="#FFE2C7"/>
<path d="M24.5403 37.0005C26.0151 36.5992 27.4313 36.007 28.7527 35.2389L28.0534 34.0268C26.8606 34.7201 25.5836 35.2573 24.2539 35.6252L24.5403 37.0005Z" fill="#FFE2C7"/>
<path d="M23.1551 37.3168L22.8687 35.9415C21.9056 36.1201 20.9279 36.2093 19.9483 36.2079C19.2413 36.208 18.535 36.1624 17.8338 36.0714L17.5674 37.4467C18.3564 37.5551 19.1519 37.6096 19.9483 37.6099C21.0239 37.6089 22.0972 37.5108 23.1551 37.3168Z" fill="#FFE2C7"/>
<path d="M8.04688 30.9799C7.3999 30.279 6.816 29.5224 6.30196 28.7189L5.08984 29.4182C5.66549 30.3277 6.32313 31.1826 7.05454 31.9723L8.04688 30.9799Z" fill="#FFE2C7"/>
<path d="M5.74905 14.5764C4.84612 16.928 4.53841 19.4663 4.85328 21.9656L6.2319 21.6892C6.16698 21.1366 6.13473 20.5806 6.13533 20.0242C6.13409 18.3648 6.43306 16.7188 7.01778 15.1658L5.74905 14.5764Z" fill="#FFE2C7"/>
<path d="M11.014 9.51475C12.726 8.05675 14.7691 7.04034 16.9647 6.55439L16.6317 5.18909C14.166 5.73916 11.8767 6.89639 9.97168 8.55571L11.014 9.51475Z" fill="#FFE2C7"/>
<path d="M5.43261 24.6096L6.76461 24.1767C6.65472 23.8204 6.55815 23.4574 6.4749 23.0911L5.09961 23.3675C5.19285 23.7871 5.30607 24.2033 5.43261 24.6096Z" fill="#FFE2C7"/>
<path d="M9.97811 10.4905L8.94914 9.53809C7.89069 10.6457 7.00498 11.9064 6.32178 13.2777L7.58717 13.8804C8.21083 12.6376 9.01671 11.495 9.97811 10.4905Z" fill="#FFE2C7"/>
<path d="M19.988 6.22798V4.82605H19.948C19.309 4.82554 18.6706 4.86558 18.0366 4.94593L18.3696 6.31789C18.8936 6.2577 19.4206 6.22768 19.948 6.22798H19.988Z" fill="#FFE2C7"/>
<path d="M21.4097 6.30458C23.2499 6.50148 25.0315 7.06778 26.6477 7.96958L27.3604 6.75413C25.5294 5.72913 23.5051 5.09634 21.4163 4.896L21.4097 6.30458Z" fill="#FFE2C7"/>
<path d="M28.6461 30.7668C26.5172 32.5002 23.9181 33.5567 21.1836 33.8004L21.2668 35.199C24.3146 34.9368 27.2113 33.7572 29.5752 31.8157L28.6461 30.7668Z" fill="#FFE2C7"/>
<path d="M35.1631 20.0575C35.1631 19.6746 35.1631 19.295 35.1231 18.922L33.7245 19.0052C33.7479 19.3382 33.7612 19.7045 33.7612 20.0575C33.7686 22.5869 33.0772 25.0691 31.7632 27.2303L32.8854 28.0762C34.3816 25.6698 35.1709 22.8911 35.1631 20.0575Z" fill="#FFE2C7"/>
<path d="M30.9639 11.7325C32.272 13.4549 33.155 15.4618 33.5413 17.5899L34.9499 17.5067C34.5377 15.0836 33.541 12.7976 32.0461 10.8467L30.9639 11.7325Z" fill="#FFE2C7"/>
<path d="M32.0659 29.2316L30.947 28.3824C30.654 28.7665 30.3432 29.1339 30.0146 29.4847L30.9504 30.537C31.3469 30.1235 31.7193 29.6877 32.0659 29.2316Z" fill="#FFE2C7"/>
<path d="M10.5908 32.0455L11.4333 30.9266C9.61624 29.4993 8.18338 27.6419 7.26413 25.522L5.93213 25.9583C6.94326 28.3498 8.54648 30.4447 10.5908 32.0455Z" fill="#FFE2C7"/>
<path d="M19.7615 33.8537C17.2228 33.8215 14.7425 33.0873 12.5953 31.7325L11.7495 32.8547C14.1655 34.4068 16.9732 35.2395 19.8447 35.2556L19.7615 33.8537Z" fill="#FFE2C7"/>
<path d="M26.0285 9.00192C25.1869 8.53015 24.2928 8.15908 23.3645 7.89636L23.0947 9.27498C23.8783 9.50303 24.6344 9.81684 25.3491 10.2107L26.0285 9.00192Z" fill="#FFE2C7"/>
<path d="M7.38037 19.1118L8.77231 19.2916C8.79601 18.9234 8.83825 18.5567 8.89885 18.1927L7.53688 17.8597C7.46316 18.2741 7.41092 18.692 7.38037 19.1118Z" fill="#FFE2C7"/>
<path d="M32.4453 21.7425L31.0567 21.5593C31.0068 21.9223 30.9402 22.2819 30.8569 22.6316L32.2356 22.9013C32.3155 22.5217 32.3854 22.1354 32.4453 21.7425Z" fill="#FFE2C7"/>
<path d="M25.2959 29.8943L25.872 31.173C28.6466 29.6922 30.7704 27.2313 31.8294 24.2699L30.4374 24.0002C29.4812 26.5151 27.6577 28.6055 25.2959 29.8943Z" fill="#FFE2C7"/>
<path d="M16.758 30.7901L16.2485 32.0988C18.981 32.935 21.9166 32.8175 24.5735 31.7658L23.9974 30.4871C21.6803 31.3853 19.1307 31.4896 16.748 30.7834L16.758 30.7901Z" fill="#FFE2C7"/>
<path d="M14.9168 31.6059L15.4262 30.3005C13.8356 29.5935 12.4295 28.5291 11.317 27.1903L10.2314 28.0761C11.496 29.6025 13.1007 30.8115 14.9168 31.6059Z" fill="#FFE2C7"/>
<path d="M10.4812 26.0515C9.46194 24.4515 8.86926 22.6173 8.75958 20.7235L7.34766 20.537C7.43008 22.8134 8.13243 25.024 9.37896 26.9306L10.4812 26.0515Z" fill="#FFE2C7"/>
<path d="M28.9492 13.3675C30.3846 15.2913 31.1601 17.6273 31.1603 20.0275V20.1274L32.5589 20.3105C32.5589 20.2173 32.5589 20.1241 32.5589 20.0275C32.5563 17.3027 31.6668 14.6529 30.0248 12.4784L28.9492 13.3675Z" fill="#FFE2C7"/>
<path d="M16.079 9.51801C17.8747 8.85695 19.8098 8.66665 21.7 8.96523L21.9664 7.58994C19.8111 7.24436 17.6031 7.46115 15.5562 8.21931L16.079 9.51801Z" fill="#FFE2C7"/>
<path d="M14.7766 10.0941L14.2471 8.79211C12.7186 9.56962 11.3638 10.6493 10.2648 11.9658C9.16576 13.2823 8.34545 14.8082 7.85352 16.4511L9.21215 16.7841C9.64992 15.3558 10.3673 14.0289 11.3226 12.8804C12.2779 11.7319 13.4519 10.7848 14.7766 10.0941Z" fill="#FFE2C7"/>
<path d="M20.035 11.233C21.4604 11.2253 22.8659 11.5684 24.1275 12.232L24.7336 11.193C22.5662 10.0343 20.0476 9.71522 17.6597 10.2968C15.2718 10.8784 13.182 12.3198 11.7902 14.3455C10.3983 16.3711 9.80194 18.8387 10.1152 21.2764C10.4285 23.7141 11.6293 25.9507 13.4882 27.5586C15.347 29.1665 17.7333 30.0327 20.1907 29.9917C22.648 29.9506 25.0041 29.0051 26.8081 27.336C28.6121 25.6669 29.7376 23.3914 29.9692 20.9446C30.2009 18.4978 29.5224 16.0514 28.0636 14.0735L27.1345 14.836C28.2913 16.4255 28.8794 18.3581 28.8042 20.3225C28.729 22.2868 27.9948 24.1688 26.7199 25.6651C25.445 27.1615 23.7036 28.1852 21.7761 28.5715C19.8485 28.9577 17.8471 28.6839 16.0941 27.7943C14.3411 26.9046 12.9385 25.4508 12.1123 23.6671C11.2861 21.8833 11.0842 19.8733 11.5393 17.9609C11.9944 16.0485 13.0799 14.3448 14.621 13.1244C16.1621 11.904 18.0691 11.2377 20.035 11.233Z" fill="#FFE2C7"/>
<path d="M35.8089 7.73651L34.8798 8.49908C37.7253 12.1761 39.104 16.7788 38.7486 21.4146C38.3933 26.0505 36.3293 30.3892 32.9567 33.5897C29.5841 36.7902 25.1433 38.6243 20.4952 38.7366C15.8471 38.8488 11.3229 37.2311 7.7998 34.1971C4.27668 31.1632 2.00564 26.9291 1.42698 22.3158C0.84833 17.7025 2.00329 13.0387 4.66794 9.22857C7.33259 5.41846 11.3171 2.73351 15.8489 1.69429C20.3807 0.655071 25.137 1.33562 29.1955 3.60399L29.8049 2.56836C25.4818 0.136706 20.4094 -0.60177 15.5724 0.496302C10.7354 1.59437 6.47899 4.45064 3.62957 8.51057C0.780151 12.5705 -0.458986 17.5444 0.152738 22.4666C0.764463 27.3888 3.1834 31.9081 6.93991 35.147C10.6964 38.386 15.5225 40.1135 20.4811 39.9942C25.4397 39.8749 30.1771 37.9172 33.7735 34.5013C37.3699 31.0855 39.5687 26.4551 39.9429 21.5092C40.3172 16.5632 38.8403 11.6547 35.7989 7.73651H35.8089Z" fill="#FFE2C7"/>
<path d="M37.4007 3.43752C36.2351 2.22146 34.9462 1.13 33.5546 0.180786L24.3838 14.9127L37.4007 3.43752Z" fill="#FFE2C7"/>
</svg>
