<svg width="31" height="24" viewBox="0 0 31 24" fill="none" xmlns="http://www.w3.org/2000/svg">
<path d="M20.2148 0.240967C19.9174 0.773575 19.6524 1.32362 19.4212 1.88811C17.1493 1.52881 14.835 1.52881 12.5631 1.88811C12.3319 1.32362 12.0669 0.773575 11.7695 0.240967C9.62936 0.606635 7.54889 1.2615 5.58518 2.18759C2.07368 7.25525 0.48118 13.4076 1.09296 19.5425C3.38136 21.2628 5.94974 22.5749 8.68481 23.4208C9.3076 22.5981 9.86342 21.7268 10.3469 20.8153C9.45459 20.4863 8.59691 20.07 7.78637 19.5725C8.00868 19.4246 8.21897 19.2593 8.41528 19.0783C10.7789 20.2168 13.3687 20.8081 15.9922 20.8081C18.6157 20.8081 21.2054 20.2168 23.569 19.0783C23.7787 19.258 23.9883 19.4227 24.1979 19.5725C23.383 20.0661 22.5262 20.487 21.6374 20.8303C22.1008 21.7625 22.6418 22.6541 23.2546 23.4957C25.9862 22.6527 28.5502 21.3403 30.8314 19.6174C31.4579 13.4813 29.8641 7.32397 26.3392 2.26246C24.3976 1.31721 22.3377 0.637286 20.2148 0.240967ZM11.0208 16.0386C10.2714 15.9848 9.57209 15.6428 9.06953 15.0844C8.56696 14.526 8.30027 13.7946 8.32543 13.0438C8.29647 12.292 8.56185 11.5585 9.06517 10.9992C9.56849 10.44 10.2701 10.0991 11.0208 10.049C11.7715 10.0991 12.473 10.44 12.9764 10.9992C13.4797 11.5585 13.7451 12.292 13.7161 13.0438C13.7451 13.7956 13.4797 14.5291 12.9764 15.0883C12.473 15.6476 11.7715 15.9885 11.0208 16.0386ZM20.9635 16.0386C20.2142 15.9848 19.5149 15.6428 19.0123 15.0844C18.5097 14.526 18.243 13.7946 18.2682 13.0438C18.2393 12.292 18.5046 11.5585 19.0079 10.9992C19.5113 10.44 20.2128 10.0991 20.9635 10.049C21.7156 10.0954 22.4195 10.4352 22.9236 10.9953C23.4277 11.5554 23.6917 12.291 23.6589 13.0438C23.6917 13.7966 23.4277 14.5322 22.9236 15.0923C22.4195 15.6524 21.7156 15.9922 20.9635 16.0386Z" fill="#FFE2C7"/>
</svg>
