<svg width="2500" height="2500" viewBox="0 0 143 143" fill="none" xmlns="http://www.w3.org/2000/svg">
<path d="M54.5006 11.0594L56.4055 15.736C61.217 14.4827 66.1709 13.8598 71.1428 13.8827C74.0415 13.8861 76.9358 14.1061 79.8017 14.5409L80.477 9.50055C71.7593 8.17696 62.8605 8.70816 54.3621 11.0594H54.5006Z" fill="#100F0F67"/>
<path d="M19.8653 98.2173C15.9867 90.7585 13.7878 82.5409 13.4232 74.1415H8.41837C8.78122 83.4235 11.213 92.5072 15.5359 100.729L19.8653 98.2173Z" fill="#100F0F67"/>
<path d="M20.3502 34.6676L24.3506 37.6814C28.6089 31.7978 33.9304 26.7632 40.0404 22.8375L37.5293 18.5073C30.8385 22.7665 25.0104 28.249 20.3502 34.6676Z" fill="#100F0F67"/>
<path d="M10.8255 54.1187L15.7784 55.0887C17.1543 50.4945 19.1096 46.0943 21.5971 41.9942L17.5621 38.9631C14.6573 43.6953 12.3921 48.7915 10.8255 54.1187Z" fill="#100F0F67"/>
<path d="M8.41837 69.0665H13.4232C13.5523 66.0281 13.9229 63.0047 14.5315 60.0251L9.61329 59.0725C8.9408 62.3653 8.54114 65.708 8.41837 69.0665Z" fill="#100F0F67"/>
<path d="M49.5651 12.6183C46.9452 13.6018 44.3938 14.7591 41.928 16.0824L44.4391 20.4126C46.6777 19.2286 48.9917 18.1929 51.3661 17.3122L49.5651 12.6183Z" fill="#100F0F67"/>
<path d="M133.937 71.5953C133.941 66.1451 133.23 60.7179 131.824 55.4524L127.062 57.0113C128.313 61.772 128.953 66.6728 128.966 71.5953C128.966 72.2015 128.966 72.8078 128.966 73.3274L133.954 73.9856C133.919 73.2408 133.937 72.4267 133.937 71.5953Z" fill="#100F0F67"/>
<path d="M117.017 36.5035C120.653 41.226 123.534 46.4849 125.555 52.0922L130.317 50.5507C128.105 44.3186 124.925 38.4736 120.896 33.2299L117.017 36.5035Z" fill="#100F0F67"/>
<path d="M101.864 16.8446C96.7462 13.9404 91.2421 11.7769 85.5165 10.4186L84.8584 15.4243C89.9203 16.6583 94.7909 18.5754 99.336 21.1228L101.864 16.8446Z" fill="#100F0F67"/>
<path d="M133.486 79.1298L128.516 78.4716C127.924 83.4685 126.678 88.3659 124.81 93.0384L129.33 95.2901C131.435 90.1146 132.833 84.6789 133.486 79.1298Z" fill="#100F0F67"/>
<path d="M127.235 99.8281L122.715 97.6803C118.419 106.12 112.13 113.386 104.393 118.846L106.904 123.194C115.51 117.209 122.496 109.18 127.235 99.8281Z" fill="#100F0F67"/>
<path d="M57.6351 132.928L58.5876 128.009C56.3658 127.512 54.1743 126.887 52.0242 126.138L50.1885 130.798C52.6224 131.667 55.1097 132.379 57.6351 132.928Z" fill="#100F0F67"/>
<path d="M47.2965 124.233C41.7855 121.727 36.7016 118.372 32.2301 114.291L28.7666 117.755C33.7329 122.322 39.3982 126.065 45.5474 128.84L47.2965 124.233Z" fill="#100F0F67"/>
<path d="M87.56 132.218C92.8367 130.794 97.9026 128.68 102.626 125.93L100.115 121.583C95.8591 124.074 91.2944 125.996 86.5383 127.299L87.56 132.218Z" fill="#100F0F67"/>
<path d="M82.6071 133.396L81.5854 128.477C75.6487 129.572 69.5764 129.724 63.5924 128.927L62.6399 133.863C65.4579 134.247 68.2989 134.438 71.1429 134.435C74.9877 134.433 78.8246 134.085 82.6071 133.396Z" fill="#100F0F67"/>
<path d="M28.6454 110.705C26.337 108.195 24.251 105.488 22.411 102.617L18.1336 105.128C20.1618 108.369 22.4804 111.418 25.0606 114.239L28.6454 110.705Z" fill="#100F0F67"/>
<path d="M20.3848 51.9883C17.9867 58.2227 16.7597 64.8462 16.7654 71.526C16.758 73.8425 16.9026 76.1569 17.1984 78.4543L22.1166 77.467C21.887 75.5124 21.7714 73.5461 21.7702 71.578C21.7751 65.6622 22.8426 59.7954 24.9221 54.2573L20.3848 51.9883Z" fill="#100F0F67"/>
<path d="M39.2265 33.9574C45.3424 28.7522 52.6365 25.1193 60.4752 23.3745L59.2976 18.5073C50.4712 20.4632 42.2738 24.5954 35.4512 30.5279L39.2265 33.9574Z" fill="#100F0F67"/>
<path d="M19.2592 87.9288L24.0389 86.3699C23.6233 85.1055 23.2769 83.8064 22.9825 82.5074L18.1336 83.4773C18.4107 84.9842 18.809 86.4738 19.2592 87.9288Z" fill="#100F0F67"/>
<path d="M35.4512 37.4562L31.7799 33.9921C28.0053 37.9589 24.842 42.4655 22.3937 47.3637L26.9656 49.5634C29.1784 45.1293 32.0382 41.0489 35.4512 37.4562Z" fill="#100F0F67"/>
<path d="M71.2987 22.214V17.2083H71.1428C68.8621 17.2065 66.5834 17.3454 64.3197 17.624L65.5146 22.543C67.3823 22.3197 69.2618 22.2098 71.1428 22.214H71.2987Z" fill="#100F0F67"/>
<path d="M76.3728 22.5431C82.9472 23.2409 89.3139 25.2555 95.0932 28.4667L97.6216 24.1539C91.0755 20.4892 83.8398 18.2243 76.3728 17.5027V22.5431Z" fill="#100F0F67"/>
<path d="M102.245 109.943C94.629 116.137 85.336 119.912 75.5589 120.786L75.8706 125.792C86.7674 124.842 97.1214 120.615 105.57 113.667L102.245 109.943Z" fill="#100F0F67"/>
<path d="M125.503 71.5953C125.503 70.227 125.503 68.876 125.347 67.525L120.342 67.8367C120.446 69.0665 120.498 70.3309 120.498 71.5953C120.536 80.6388 118.073 89.5167 113.381 97.2473L117.398 100.261C122.727 91.6521 125.535 81.7207 125.503 71.5953Z" fill="#100F0F67"/>
<path d="M110.523 41.8383C115.202 47.9943 118.359 55.1699 119.736 62.7791L124.758 62.4846C123.285 53.813 119.718 45.6319 114.368 38.6513L110.523 41.8383Z" fill="#100F0F67"/>
<path d="M114.454 104.453L110.454 101.439C109.417 102.808 108.307 104.12 107.129 105.371L110.471 109.147C111.892 107.663 113.222 106.096 114.454 104.453Z" fill="#100F0F67"/>
<path d="M37.7025 114.464L40.6465 110.463C34.1415 105.372 29.0153 98.7326 25.736 91.1504L20.9563 92.6919C24.5979 101.255 30.3613 108.748 37.7025 114.464Z" fill="#100F0F67"/>
<path d="M70.4848 120.977C61.4097 120.868 52.543 118.241 44.872 113.39L41.8414 117.409C50.4696 122.985 60.5068 125.989 70.7792 126.069L70.4848 120.977Z" fill="#100F0F67"/>
<path d="M92.9285 32.1214C89.8817 30.4385 86.6508 29.1134 83.2999 28.1723L82.3474 33.1087C85.1405 33.9178 87.8398 35.0209 90.4001 36.3996L92.9285 32.1214Z" fill="#100F0F67"/>
<path d="M26.1863 68.2698L31.1738 68.9279C31.2524 67.6101 31.4027 66.2976 31.624 64.9961L26.7924 63.7664C26.4807 65.2386 26.3075 66.7455 26.1863 68.2698Z" fill="#100F0F67"/>
<path d="M115.822 77.6922L110.852 77.034C110.679 78.3331 110.437 79.5975 110.142 80.8619L115.06 81.8145C115.372 80.4635 115.632 79.0779 115.822 77.6922Z" fill="#100F0F67"/>
<path d="M90.2615 106.826L92.3223 111.398C102.237 106.097 109.828 97.3005 113.623 86.7163L108.636 85.7464C105.221 94.7401 98.7042 102.216 90.2615 106.826Z" fill="#100F0F67"/>
<path d="M59.6959 110.03L57.9641 114.707C67.7402 117.696 78.2408 117.28 87.7505 113.529L85.6723 108.956C81.0483 110.765 76.1253 111.687 71.1602 111.675C67.2792 111.686 63.4173 111.132 59.6959 110.03Z" fill="#100F0F67"/>
<path d="M53.1499 112.94L54.9855 108.263C49.3014 105.742 44.2758 101.943 40.3002 97.1607L36.421 100.313C40.9374 105.768 46.6661 110.092 53.1499 112.94Z" fill="#100F0F67"/>
<path d="M37.3042 93.0384C33.6668 87.3144 31.5507 80.7564 31.1564 73.9856L26.0997 73.3274C26.4164 81.4652 28.9428 89.3631 33.4077 96.1734L37.3042 93.0384Z" fill="#100F0F67"/>
<path d="M103.319 47.7274C108.458 54.6223 111.228 62.9954 111.216 71.5953V71.9417L116.221 72.6172C116.221 72.2708 116.221 71.9417 116.221 71.5953C116.226 61.8396 113.052 52.3479 107.181 44.5577L103.319 47.7274Z" fill="#100F0F67"/>
<path d="M57.3061 33.9748C61.7424 32.3419 66.4331 31.5092 71.1602 31.5152C73.2477 31.5177 75.3319 31.6798 77.3946 32.0002L78.347 27.0811C75.9708 26.6967 73.5673 26.5056 71.1602 26.5095C65.7926 26.5078 60.4677 27.4639 55.4358 29.3328L57.3061 33.9748Z" fill="#100F0F67"/>
<path d="M52.665 36.0359L50.7773 31.3766C45.3081 34.1632 40.4617 38.0318 36.5323 42.748C32.6028 47.4642 29.6722 52.9296 27.9181 58.8126L32.767 60.0424C34.3241 54.9201 36.8856 50.1592 40.3019 46.0375C43.7182 41.9158 47.9209 38.5158 52.665 36.0359Z" fill="#100F0F67"/>
<path d="M71.5066 40.1063C76.6033 40.0999 81.6232 41.3491 86.1227 43.7436L88.3047 40.037C82.8816 37.129 76.7973 35.677 70.6457 35.8229C64.4941 35.9688 58.4854 37.7075 53.2062 40.8693C47.927 44.0311 43.5577 48.508 40.5247 53.8629C37.4918 59.2178 35.8989 65.2677 35.9015 71.4221C35.9073 77.0507 37.247 82.5978 39.8107 87.6085C42.3744 92.6191 46.0891 96.9506 50.6502 100.248C55.2113 103.545 60.4888 105.713 66.0499 106.576C71.6111 107.439 77.2975 106.971 82.6428 105.21C87.9881 103.45 92.84 100.447 96.8007 96.4484C100.761 92.4497 103.718 87.5691 105.428 82.2066C107.138 76.8441 107.553 71.1526 106.638 65.5988C105.724 60.045 103.506 54.787 100.167 50.2562L96.8423 52.9755C100.965 58.6678 103.051 65.5822 102.766 72.605C102.481 79.6279 99.841 86.3503 95.2709 91.6897C90.7009 97.029 84.467 100.674 77.5733 102.039C70.6796 103.403 63.5273 102.407 57.2686 99.2106C51.0099 96.0144 46.009 90.8042 43.0714 84.4191C40.1337 78.0341 39.4304 70.8459 41.0746 64.0124C42.7189 57.1789 46.6149 51.0978 52.1354 46.7486C57.6558 42.3994 64.4792 40.0353 71.5066 40.037V40.1063Z" fill="#100F0F67"/>
<path d="M127.841 27.618L124.516 30.3547C134.669 43.4944 139.582 59.9364 138.304 76.4935C137.025 93.0505 129.646 108.543 117.597 119.968C105.547 131.393 89.6853 137.936 73.0866 138.329C56.4878 138.722 40.3344 132.937 27.7578 122.095C15.1811 111.253 7.0771 96.1274 5.01677 79.6494C2.95644 63.1714 7.08655 46.5152 16.6065 32.9097C26.1264 19.3042 40.3579 9.71865 56.5422 6.01118C72.7265 2.30371 89.7107 4.73847 104.202 12.8435L106.454 9.13683C90.9915 0.464433 72.8594 -2.15266 55.5767 1.79356C38.294 5.73978 23.0938 15.9678 12.9265 30.4922C2.75928 45.0166 -1.64971 62.8013 0.555421 80.3941C2.76056 97.9868 11.4225 114.133 24.8599 125.697C38.2972 137.262 55.5514 143.421 73.2732 142.978C90.995 142.535 107.92 135.522 120.763 123.3C133.606 111.079 141.451 94.5206 142.775 76.8396C144.099 59.1587 138.807 41.6164 127.927 27.618H127.841Z" fill="#100F0F67"/>
<path d="M133.521 12.2372C129.359 7.88563 124.75 3.9843 119.771 0.597717L87.0059 53.27L133.521 12.2372Z" fill="#100F0F67"/>
</svg>
