<svg width="30" height="25" viewBox="0 0 30 25" fill="none" xmlns="http://www.w3.org/2000/svg">
<path d="M26.9179 6.07267C26.9377 6.33981 26.9377 6.60544 26.9377 6.87106C26.9377 15 20.7506 24.367 9.44331 24.367C5.9597 24.367 2.72339 23.3579 0 21.6054C0.494606 21.6619 0.970894 21.6818 1.48535 21.6818C4.25299 21.6884 6.94226 20.763 9.11968 19.0545C7.83649 19.0313 6.59257 18.608 5.56163 17.8436C4.53068 17.0792 3.76417 16.012 3.36912 14.7909C3.74924 14.8473 4.13088 14.8855 4.53084 14.8855C5.08192 14.8855 5.63607 14.8092 6.15052 14.6764C4.75793 14.3952 3.50571 13.6404 2.60679 12.5402C1.70786 11.4401 1.21773 10.0626 1.21972 8.64187V8.56554C2.03949 9.02198 2.99054 9.30745 3.99807 9.34561C3.15401 8.78473 2.46192 8.02365 1.98352 7.13025C1.50513 6.23686 1.25531 5.23894 1.25636 4.22552C1.25636 3.08366 1.56015 2.03643 2.09292 1.12355C3.63801 3.02415 5.56509 4.57902 7.74934 5.68745C9.9336 6.79588 12.3263 7.43316 14.7725 7.55801C14.6779 7.10004 14.6199 6.62528 14.6199 6.14899C14.6195 5.34138 14.7783 4.54161 15.0871 3.7954C15.396 3.04919 15.8489 2.37117 16.42 1.8001C16.9911 1.22904 17.6691 0.776121 18.4153 0.467248C19.1615 0.158374 19.9613 -0.000400538 20.7689 7.58798e-07C22.5397 7.58798e-07 24.138 0.74191 25.2616 1.94179C26.6382 1.67558 27.9583 1.17304 29.1634 0.456443C28.7046 1.87739 27.7434 3.08229 26.4599 3.84541C27.6808 3.70616 28.8741 3.38508 30 2.89284C29.1591 4.11882 28.117 5.19389 26.9179 6.07267Z" fill="#FFE2C7"/>
</svg>
